<svg width="172" height="48" viewBox="0 0 172 48" fill="none" xmlns="http://www.w3.org/2000/svg">
<path d="M146.743 42.005V6.18677H152.402V29.8255L164.372 16.0694H171.233L160.466 27.8583L171.333 42.005H164.572L155.77 29.8494L152.402 29.8255V42.005H146.743Z" fill="white"/>
<path d="M129.58 42.6069C121.166 42.6069 116.609 36.6372 116.609 29.0121C116.609 21.3367 121.166 15.4172 129.58 15.4172C138.044 15.4172 142.552 21.3367 142.552 29.0121C142.552 36.6372 138.044 42.6069 129.58 42.6069ZM122.518 29.0121C122.518 34.9316 125.724 37.8914 129.58 37.8914C133.487 37.8914 136.642 34.9316 136.642 29.0121C136.642 23.0925 133.487 20.0826 129.58 20.0826C125.724 20.0826 122.518 23.0925 122.518 29.0121Z" fill="white"/>
<path d="M100.858 42.005V20.1829L105.616 16.0694H115.732V20.8853H106.517V42.005H100.858Z" fill="white"/>
<path d="M79.2184 42.6673C68.4315 42.6673 62.0001 34.8313 62.0001 24.1461C62.0001 13.3605 68.6611 5.33398 79.4289 5.33398C87.8428 5.33398 94.003 9.64822 95.4554 17.6747H88.9947C88.0431 13.1096 84.2368 10.5512 79.4289 10.5512C71.6661 10.5512 68.2605 17.2734 68.2605 24.1461C68.2605 31.0187 71.6661 37.6907 79.4289 37.6907C86.8411 37.6907 90.0965 32.323 90.3469 27.8583H79.1785V22.664H96.0564L96.0288 25.3797C96.0288 35.4713 91.918 42.6673 79.2184 42.6673Z" fill="white"/>
<path fill-rule="evenodd" clip-rule="evenodd" d="M0.666748 10.2857C0.666748 4.60507 5.27182 0 10.9525 0H38.381C44.0617 0 48.6667 4.60507 48.6667 10.2857V37.7143C48.6667 43.3949 44.0617 48 38.381 48H10.9525C5.27182 48 0.666748 43.3949 0.666748 37.7143V10.2857ZM10.0063 19.526L24.7693 40.6099H31.3311L16.5676 19.526H10.0063ZM10.0001 40.6106L16.5635 31.237L19.8465 35.926L16.5662 40.6106H10.0001ZM32.8318 8L21.4858 24.2039L24.7688 28.8924L39.3979 8H32.8318ZM34.0211 40.6092V18.0249L39.3997 10.3438V40.6092H34.0211Z" fill="white"/>
</svg>
